<mxfile host="app.diagrams.net" agent="Mozilla/5.0 (Macintosh; Intel Mac OS X 10_15_7) AppleWebKit/537.36 (KHTML, like Gecko) Chrome/133.0.0.0 Safari/537.36" version="26.0.16">
  <diagram name="Sayfa -1" id="CGD-K2KJuc4LjVUDq4DY">
    <mxGraphModel dx="2501" dy="795" grid="1" gridSize="10" guides="1" tooltips="1" connect="1" arrows="1" fold="1" page="1" pageScale="1" pageWidth="827" pageHeight="1169" math="0" shadow="0">
      <root>
        <mxCell id="0" />
        <mxCell id="1" parent="0" />
        <mxCell id="nzunu8r1k3bU8q7vp1oN-16" style="edgeStyle=orthogonalEdgeStyle;rounded=0;orthogonalLoop=1;jettySize=auto;html=1;shadow=1;fillColor=#FFF2CC;" edge="1" parent="1" source="nzunu8r1k3bU8q7vp1oN-1" target="nzunu8r1k3bU8q7vp1oN-15">
          <mxGeometry relative="1" as="geometry" />
        </mxCell>
        <mxCell id="nzunu8r1k3bU8q7vp1oN-1" value="POST /api/message/send" style="rounded=0;whiteSpace=wrap;html=1;shadow=1;fillColor=#FFF2CC;" vertex="1" parent="1">
          <mxGeometry x="-235" y="230" width="150" height="60" as="geometry" />
        </mxCell>
        <mxCell id="nzunu8r1k3bU8q7vp1oN-9" value="1" style="ellipse;whiteSpace=wrap;html=1;aspect=fixed;shadow=1;fillColor=#FFF2CC;" vertex="1" parent="1">
          <mxGeometry x="-220" y="150" width="30" height="30" as="geometry" />
        </mxCell>
        <mxCell id="nzunu8r1k3bU8q7vp1oN-12" value="" style="edgeStyle=orthogonalEdgeStyle;rounded=0;orthogonalLoop=1;jettySize=auto;html=1;shadow=1;fillColor=#FFF2CC;" edge="1" parent="1" source="nzunu8r1k3bU8q7vp1oN-10" target="nzunu8r1k3bU8q7vp1oN-1">
          <mxGeometry relative="1" as="geometry" />
        </mxCell>
        <mxCell id="nzunu8r1k3bU8q7vp1oN-10" value="" style="shape=umlActor;verticalLabelPosition=bottom;verticalAlign=top;html=1;outlineConnect=0;shadow=1;fillColor=#FFF2CC;" vertex="1" parent="1">
          <mxGeometry x="-170" y="140" width="20" height="40" as="geometry" />
        </mxCell>
        <mxCell id="nzunu8r1k3bU8q7vp1oN-13" value="Process Message Queue" style="sketch=0;outlineConnect=0;fontColor=#232F3E;gradientColor=none;strokeColor=#232F3E;fillColor=#ffffff;dashed=0;verticalLabelPosition=bottom;verticalAlign=top;align=center;html=1;fontSize=12;fontStyle=0;aspect=fixed;shape=mxgraph.aws4.resourceIcon;resIcon=mxgraph.aws4.queue;shadow=1;" vertex="1" parent="1">
          <mxGeometry x="-190" y="515" width="60" height="60" as="geometry" />
        </mxCell>
        <mxCell id="nzunu8r1k3bU8q7vp1oN-33" value="" style="edgeStyle=orthogonalEdgeStyle;rounded=0;orthogonalLoop=1;jettySize=auto;html=1;shadow=1;fillColor=#FFF2CC;" edge="1" parent="1" source="nzunu8r1k3bU8q7vp1oN-15" target="nzunu8r1k3bU8q7vp1oN-32">
          <mxGeometry relative="1" as="geometry" />
        </mxCell>
        <mxCell id="nzunu8r1k3bU8q7vp1oN-65" value="OK" style="edgeLabel;html=1;align=center;verticalAlign=middle;resizable=0;points=[];shadow=1;fillColor=#FFF2CC;" vertex="1" connectable="0" parent="nzunu8r1k3bU8q7vp1oN-33">
          <mxGeometry x="-0.2" y="1" relative="1" as="geometry">
            <mxPoint as="offset" />
          </mxGeometry>
        </mxCell>
        <mxCell id="nzunu8r1k3bU8q7vp1oN-153" style="edgeStyle=orthogonalEdgeStyle;rounded=0;orthogonalLoop=1;jettySize=auto;html=1;shadow=1;fillColor=#FFF2CC;" edge="1" parent="1" source="nzunu8r1k3bU8q7vp1oN-15" target="nzunu8r1k3bU8q7vp1oN-66">
          <mxGeometry relative="1" as="geometry" />
        </mxCell>
        <mxCell id="nzunu8r1k3bU8q7vp1oN-15" value="Validation, authorization check vs" style="shape=process;whiteSpace=wrap;html=1;backgroundOutline=1;shadow=1;fillColor=#FFF2CC;" vertex="1" parent="1">
          <mxGeometry x="-232.5" y="305" width="145" height="50" as="geometry" />
        </mxCell>
        <mxCell id="nzunu8r1k3bU8q7vp1oN-20" value="2" style="ellipse;whiteSpace=wrap;html=1;aspect=fixed;fillColor=light-dark(#FFE599,var(--ge-dark-color, #121212));" vertex="1" parent="1">
          <mxGeometry x="125" y="135" width="30" height="30" as="geometry" />
        </mxCell>
        <mxCell id="nzunu8r1k3bU8q7vp1oN-69" value="" style="edgeStyle=orthogonalEdgeStyle;rounded=0;orthogonalLoop=1;jettySize=auto;html=1;fillColor=light-dark(#FFE599,var(--ge-dark-color, #121212));" edge="1" parent="1" source="nzunu8r1k3bU8q7vp1oN-21" target="nzunu8r1k3bU8q7vp1oN-68">
          <mxGeometry relative="1" as="geometry" />
        </mxCell>
        <mxCell id="nzunu8r1k3bU8q7vp1oN-21" value="Insert Database Cronjob" style="shape=process;whiteSpace=wrap;html=1;backgroundOutline=1;fillColor=light-dark(#FFE599,var(--ge-dark-color, #121212));" vertex="1" parent="1">
          <mxGeometry x="170" y="130" width="170" height="40" as="geometry" />
        </mxCell>
        <mxCell id="nzunu8r1k3bU8q7vp1oN-71" style="edgeStyle=orthogonalEdgeStyle;rounded=0;orthogonalLoop=1;jettySize=auto;html=1;" edge="1" parent="1" source="nzunu8r1k3bU8q7vp1oN-22" target="nzunu8r1k3bU8q7vp1oN-68">
          <mxGeometry relative="1" as="geometry" />
        </mxCell>
        <mxCell id="nzunu8r1k3bU8q7vp1oN-22" value="" style="sketch=0;outlineConnect=0;fontColor=#232F3E;gradientColor=none;strokeColor=#232F3E;fillColor=#ffffff;dashed=0;verticalLabelPosition=bottom;verticalAlign=top;align=center;html=1;fontSize=12;fontStyle=0;aspect=fixed;shape=mxgraph.aws4.resourceIcon;resIcon=mxgraph.aws4.queue;" vertex="1" parent="1">
          <mxGeometry x="386" y="177.5" width="55" height="55" as="geometry" />
        </mxCell>
        <mxCell id="nzunu8r1k3bU8q7vp1oN-34" style="edgeStyle=orthogonalEdgeStyle;rounded=0;orthogonalLoop=1;jettySize=auto;html=1;shadow=1;" edge="1" parent="1" source="nzunu8r1k3bU8q7vp1oN-32" target="nzunu8r1k3bU8q7vp1oN-13">
          <mxGeometry relative="1" as="geometry" />
        </mxCell>
        <mxCell id="nzunu8r1k3bU8q7vp1oN-35" value="true" style="edgeLabel;html=1;align=center;verticalAlign=middle;resizable=0;points=[];shadow=1;fillColor=#FFF2CC;" vertex="1" connectable="0" parent="nzunu8r1k3bU8q7vp1oN-34">
          <mxGeometry relative="1" as="geometry">
            <mxPoint as="offset" />
          </mxGeometry>
        </mxCell>
        <mxCell id="nzunu8r1k3bU8q7vp1oN-57" value="" style="edgeStyle=orthogonalEdgeStyle;rounded=0;orthogonalLoop=1;jettySize=auto;html=1;shadow=1;fillColor=#FFF2CC;" edge="1" parent="1" source="nzunu8r1k3bU8q7vp1oN-32" target="nzunu8r1k3bU8q7vp1oN-56">
          <mxGeometry relative="1" as="geometry">
            <mxPoint x="-260" y="495" as="targetPoint" />
          </mxGeometry>
        </mxCell>
        <mxCell id="nzunu8r1k3bU8q7vp1oN-58" value="false" style="edgeLabel;html=1;align=center;verticalAlign=middle;resizable=0;points=[];shadow=1;fillColor=#FFF2CC;" vertex="1" connectable="0" parent="nzunu8r1k3bU8q7vp1oN-57">
          <mxGeometry x="-0.0286" y="-4" relative="1" as="geometry">
            <mxPoint as="offset" />
          </mxGeometry>
        </mxCell>
        <mxCell id="nzunu8r1k3bU8q7vp1oN-32" value="is already&amp;nbsp; message sended to queue" style="rhombus;whiteSpace=wrap;html=1;shadow=1;fillColor=#FFF2CC;" vertex="1" parent="1">
          <mxGeometry x="-210" y="390" width="100" height="90" as="geometry" />
        </mxCell>
        <mxCell id="nzunu8r1k3bU8q7vp1oN-50" value="Insert unique record" style="shape=cylinder3;whiteSpace=wrap;html=1;boundedLbl=1;backgroundOutline=1;size=15;" vertex="1" parent="1">
          <mxGeometry x="30" y="353.85999999999996" width="60" height="78.41" as="geometry" />
        </mxCell>
        <mxCell id="nzunu8r1k3bU8q7vp1oN-170" value="" style="edgeStyle=orthogonalEdgeStyle;rounded=0;orthogonalLoop=1;jettySize=auto;html=1;" edge="1" parent="1" source="nzunu8r1k3bU8q7vp1oN-52" target="nzunu8r1k3bU8q7vp1oN-104">
          <mxGeometry relative="1" as="geometry" />
        </mxCell>
        <mxCell id="nzunu8r1k3bU8q7vp1oN-52" value="Insert Key for default" style="outlineConnect=0;dashed=0;verticalLabelPosition=bottom;verticalAlign=top;align=center;html=1;shape=mxgraph.aws3.redis;fillColor=#2E73B8;gradientColor=none;" vertex="1" parent="1">
          <mxGeometry x="180" y="554.13" width="30" height="35" as="geometry" />
        </mxCell>
        <mxCell id="nzunu8r1k3bU8q7vp1oN-55" style="edgeStyle=orthogonalEdgeStyle;rounded=0;orthogonalLoop=1;jettySize=auto;html=1;shadow=1;" edge="1" parent="1" source="nzunu8r1k3bU8q7vp1oN-54" target="nzunu8r1k3bU8q7vp1oN-32">
          <mxGeometry relative="1" as="geometry" />
        </mxCell>
        <mxCell id="nzunu8r1k3bU8q7vp1oN-54" value="" style="outlineConnect=0;dashed=0;verticalLabelPosition=bottom;verticalAlign=top;align=center;html=1;shape=mxgraph.aws3.redis;fillColor=#2E73B8;gradientColor=none;shadow=1;" vertex="1" parent="1">
          <mxGeometry x="-75" y="418.37" width="30" height="33.25" as="geometry" />
        </mxCell>
        <mxCell id="nzunu8r1k3bU8q7vp1oN-56" value="409 Conflict" style="whiteSpace=wrap;html=1;shadow=1;fillColor=#FFF2CC;" vertex="1" parent="1">
          <mxGeometry x="-380" y="426.62" width="100" height="25" as="geometry" />
        </mxCell>
        <mxCell id="nzunu8r1k3bU8q7vp1oN-75" style="edgeStyle=orthogonalEdgeStyle;rounded=0;orthogonalLoop=1;jettySize=auto;html=1;" edge="1" parent="1" source="nzunu8r1k3bU8q7vp1oN-64" target="nzunu8r1k3bU8q7vp1oN-50">
          <mxGeometry relative="1" as="geometry" />
        </mxCell>
        <mxCell id="nzunu8r1k3bU8q7vp1oN-82" value="" style="edgeStyle=orthogonalEdgeStyle;rounded=0;orthogonalLoop=1;jettySize=auto;html=1;fillColor=light-dark(#FFE599,var(--ge-dark-color, #121212));" edge="1" parent="1" source="nzunu8r1k3bU8q7vp1oN-64" target="nzunu8r1k3bU8q7vp1oN-81">
          <mxGeometry relative="1" as="geometry" />
        </mxCell>
        <mxCell id="nzunu8r1k3bU8q7vp1oN-64" value="Database Insert" style="shape=process;whiteSpace=wrap;html=1;backgroundOutline=1;fillColor=light-dark(#FFE599,var(--ge-dark-color, #121212));" vertex="1" parent="1">
          <mxGeometry x="120" y="379.12" width="150" height="27.88" as="geometry" />
        </mxCell>
        <mxCell id="nzunu8r1k3bU8q7vp1oN-66" value="400 Bad Request" style="whiteSpace=wrap;html=1;shadow=1;fillColor=#FFF2CC;" vertex="1" parent="1">
          <mxGeometry x="-380" y="315" width="100" height="30" as="geometry" />
        </mxCell>
        <mxCell id="nzunu8r1k3bU8q7vp1oN-98" style="edgeStyle=orthogonalEdgeStyle;rounded=0;orthogonalLoop=1;jettySize=auto;html=1;fillColor=light-dark(#FFE599,var(--ge-dark-color, #121212));" edge="1" parent="1" source="nzunu8r1k3bU8q7vp1oN-68" target="nzunu8r1k3bU8q7vp1oN-96">
          <mxGeometry relative="1" as="geometry" />
        </mxCell>
        <mxCell id="nzunu8r1k3bU8q7vp1oN-68" value="Listen PM Queue" style="shape=process;whiteSpace=wrap;html=1;backgroundOutline=1;fillColor=light-dark(#FFE599,var(--ge-dark-color, #121212));" vertex="1" parent="1">
          <mxGeometry x="170" y="190" width="170" height="30" as="geometry" />
        </mxCell>
        <mxCell id="nzunu8r1k3bU8q7vp1oN-169" value="" style="edgeStyle=orthogonalEdgeStyle;rounded=0;orthogonalLoop=1;jettySize=auto;html=1;" edge="1" parent="1" source="nzunu8r1k3bU8q7vp1oN-81" target="nzunu8r1k3bU8q7vp1oN-52">
          <mxGeometry relative="1" as="geometry" />
        </mxCell>
        <mxCell id="nzunu8r1k3bU8q7vp1oN-194" value="OK" style="edgeLabel;html=1;align=center;verticalAlign=middle;resizable=0;points=[];" vertex="1" connectable="0" parent="nzunu8r1k3bU8q7vp1oN-169">
          <mxGeometry x="0.1836" y="-1" relative="1" as="geometry">
            <mxPoint as="offset" />
          </mxGeometry>
        </mxCell>
        <mxCell id="nzunu8r1k3bU8q7vp1oN-193" style="edgeStyle=orthogonalEdgeStyle;rounded=0;orthogonalLoop=1;jettySize=auto;html=1;entryX=0.5;entryY=1;entryDx=0;entryDy=0;" edge="1" parent="1" source="nzunu8r1k3bU8q7vp1oN-81" target="nzunu8r1k3bU8q7vp1oN-190">
          <mxGeometry relative="1" as="geometry" />
        </mxCell>
        <mxCell id="nzunu8r1k3bU8q7vp1oN-195" value="NOK" style="edgeLabel;html=1;align=center;verticalAlign=middle;resizable=0;points=[];" vertex="1" connectable="0" parent="nzunu8r1k3bU8q7vp1oN-193">
          <mxGeometry x="-0.1087" y="2" relative="1" as="geometry">
            <mxPoint as="offset" />
          </mxGeometry>
        </mxCell>
        <mxCell id="nzunu8r1k3bU8q7vp1oN-81" value="Success" style="rhombus;whiteSpace=wrap;html=1;fillColor=light-dark(#FFE599,var(--ge-dark-color, #121212));" vertex="1" parent="1">
          <mxGeometry x="157.5" y="438.73" width="75" height="65" as="geometry" />
        </mxCell>
        <mxCell id="nzunu8r1k3bU8q7vp1oN-95" value="" style="outlineConnect=0;dashed=0;verticalLabelPosition=bottom;verticalAlign=top;align=center;html=1;shape=mxgraph.aws3.redis;fillColor=#2E73B8;gradientColor=none;" vertex="1" parent="1">
          <mxGeometry x="399" y="260.5" width="30" height="34.5" as="geometry" />
        </mxCell>
        <mxCell id="nzunu8r1k3bU8q7vp1oN-97" style="edgeStyle=orthogonalEdgeStyle;rounded=0;orthogonalLoop=1;jettySize=auto;html=1;" edge="1" parent="1" source="nzunu8r1k3bU8q7vp1oN-96" target="nzunu8r1k3bU8q7vp1oN-95">
          <mxGeometry relative="1" as="geometry" />
        </mxCell>
        <mxCell id="nzunu8r1k3bU8q7vp1oN-99" style="edgeStyle=orthogonalEdgeStyle;rounded=0;orthogonalLoop=1;jettySize=auto;html=1;fillColor=light-dark(#FFE599,var(--ge-dark-color, #121212));" edge="1" parent="1" source="nzunu8r1k3bU8q7vp1oN-96" target="nzunu8r1k3bU8q7vp1oN-64">
          <mxGeometry relative="1" as="geometry" />
        </mxCell>
        <mxCell id="nzunu8r1k3bU8q7vp1oN-183" value="NOK" style="edgeLabel;html=1;align=center;verticalAlign=middle;resizable=0;points=[];" vertex="1" connectable="0" parent="nzunu8r1k3bU8q7vp1oN-99">
          <mxGeometry x="0.1489" y="3" relative="1" as="geometry">
            <mxPoint as="offset" />
          </mxGeometry>
        </mxCell>
        <mxCell id="nzunu8r1k3bU8q7vp1oN-187" style="edgeStyle=orthogonalEdgeStyle;rounded=0;orthogonalLoop=1;jettySize=auto;html=1;" edge="1" parent="1" source="nzunu8r1k3bU8q7vp1oN-96">
          <mxGeometry relative="1" as="geometry">
            <mxPoint x="340" y="380" as="targetPoint" />
          </mxGeometry>
        </mxCell>
        <mxCell id="nzunu8r1k3bU8q7vp1oN-188" value="OK" style="edgeLabel;html=1;align=center;verticalAlign=middle;resizable=0;points=[];" vertex="1" connectable="0" parent="nzunu8r1k3bU8q7vp1oN-187">
          <mxGeometry x="0.1419" y="-1" relative="1" as="geometry">
            <mxPoint x="1" y="1" as="offset" />
          </mxGeometry>
        </mxCell>
        <mxCell id="nzunu8r1k3bU8q7vp1oN-96" value="Has Data on Redis Check" style="shape=process;whiteSpace=wrap;html=1;backgroundOutline=1;fillColor=light-dark(#FFE599,var(--ge-dark-color, #121212));" vertex="1" parent="1">
          <mxGeometry x="170" y="247" width="170" height="60" as="geometry" />
        </mxCell>
        <mxCell id="nzunu8r1k3bU8q7vp1oN-113" value="" style="edgeStyle=orthogonalEdgeStyle;rounded=0;orthogonalLoop=1;jettySize=auto;html=1;fillColor=#FFCE9F;" edge="1" parent="1" source="nzunu8r1k3bU8q7vp1oN-100" target="nzunu8r1k3bU8q7vp1oN-112">
          <mxGeometry relative="1" as="geometry" />
        </mxCell>
        <mxCell id="nzunu8r1k3bU8q7vp1oN-100" value="Send Message Cronjob" style="shape=process;whiteSpace=wrap;html=1;backgroundOutline=1;fillColor=light-dark(#D5E8D4,var(--ge-dark-color, #121212));" vertex="1" parent="1">
          <mxGeometry x="580" y="110" width="170" height="30" as="geometry" />
        </mxCell>
        <mxCell id="nzunu8r1k3bU8q7vp1oN-101" value="3" style="ellipse;whiteSpace=wrap;html=1;aspect=fixed;fillColor=#FFCE9F;" vertex="1" parent="1">
          <mxGeometry x="530" y="110" width="30" height="30" as="geometry" />
        </mxCell>
        <mxCell id="nzunu8r1k3bU8q7vp1oN-104" value="Send Message" style="sketch=0;outlineConnect=0;fontColor=#232F3E;gradientColor=none;strokeColor=#232F3E;fillColor=#ffffff;dashed=0;verticalLabelPosition=bottom;verticalAlign=top;align=center;html=1;fontSize=12;fontStyle=0;aspect=fixed;shape=mxgraph.aws4.resourceIcon;resIcon=mxgraph.aws4.queue;" vertex="1" parent="1">
          <mxGeometry x="175" y="630" width="40" height="40" as="geometry" />
        </mxCell>
        <mxCell id="nzunu8r1k3bU8q7vp1oN-145" style="edgeStyle=orthogonalEdgeStyle;rounded=0;orthogonalLoop=1;jettySize=auto;html=1;fillColor=#FFCE9F;" edge="1" parent="1" source="nzunu8r1k3bU8q7vp1oN-112" target="nzunu8r1k3bU8q7vp1oN-144">
          <mxGeometry relative="1" as="geometry" />
        </mxCell>
        <mxCell id="nzunu8r1k3bU8q7vp1oN-112" value="Listen SM Queue" style="shape=process;whiteSpace=wrap;html=1;backgroundOutline=1;fillColor=light-dark(#D5E8D4,var(--ge-dark-color, #121212));" vertex="1" parent="1">
          <mxGeometry x="570" y="168.5" width="170" height="33" as="geometry" />
        </mxCell>
        <mxCell id="nzunu8r1k3bU8q7vp1oN-151" style="edgeStyle=orthogonalEdgeStyle;rounded=0;orthogonalLoop=1;jettySize=auto;html=1;" edge="1" parent="1" source="nzunu8r1k3bU8q7vp1oN-114" target="nzunu8r1k3bU8q7vp1oN-112">
          <mxGeometry relative="1" as="geometry" />
        </mxCell>
        <mxCell id="nzunu8r1k3bU8q7vp1oN-114" value="" style="sketch=0;outlineConnect=0;fontColor=#232F3E;gradientColor=none;strokeColor=#232F3E;fillColor=#ffffff;dashed=0;verticalLabelPosition=bottom;verticalAlign=top;align=center;html=1;fontSize=12;fontStyle=0;aspect=fixed;shape=mxgraph.aws4.resourceIcon;resIcon=mxgraph.aws4.queue;" vertex="1" parent="1">
          <mxGeometry x="840" y="165" width="40" height="40" as="geometry" />
        </mxCell>
        <mxCell id="nzunu8r1k3bU8q7vp1oN-147" style="edgeStyle=orthogonalEdgeStyle;rounded=0;orthogonalLoop=1;jettySize=auto;html=1;" edge="1" parent="1" source="nzunu8r1k3bU8q7vp1oN-116" target="nzunu8r1k3bU8q7vp1oN-143">
          <mxGeometry relative="1" as="geometry" />
        </mxCell>
        <mxCell id="nzunu8r1k3bU8q7vp1oN-116" value="SM Strategy" style="whiteSpace=wrap;html=1;fillColor=light-dark(#D5E8D4,var(--ge-dark-color, #121212));" vertex="1" parent="1">
          <mxGeometry x="771.25" y="262" width="97.5" height="33" as="geometry" />
        </mxCell>
        <mxCell id="nzunu8r1k3bU8q7vp1oN-118" value="Provider A&lt;br&gt;(Default)" style="whiteSpace=wrap;html=1;fillColor=light-dark(#D5E8D4,var(--ge-dark-color, #121212));" vertex="1" parent="1">
          <mxGeometry x="900" y="220" width="100" height="35" as="geometry" />
        </mxCell>
        <mxCell id="nzunu8r1k3bU8q7vp1oN-120" value="Provider B&amp;nbsp;&lt;br&gt;(Fallback)" style="whiteSpace=wrap;html=1;fillColor=light-dark(#D5E8D4,var(--ge-dark-color, #121212));" vertex="1" parent="1">
          <mxGeometry x="900" y="295" width="110" height="33" as="geometry" />
        </mxCell>
        <mxCell id="nzunu8r1k3bU8q7vp1oN-133" value="" style="edgeStyle=orthogonalEdgeStyle;rounded=0;orthogonalLoop=1;jettySize=auto;html=1;" edge="1" parent="1" source="nzunu8r1k3bU8q7vp1oN-123" target="nzunu8r1k3bU8q7vp1oN-132">
          <mxGeometry relative="1" as="geometry" />
        </mxCell>
        <mxCell id="nzunu8r1k3bU8q7vp1oN-134" value="false" style="edgeLabel;html=1;align=center;verticalAlign=middle;resizable=0;points=[];fillColor=#FFCE9F;" vertex="1" connectable="0" parent="nzunu8r1k3bU8q7vp1oN-133">
          <mxGeometry x="-0.3667" y="-2" relative="1" as="geometry">
            <mxPoint y="1" as="offset" />
          </mxGeometry>
        </mxCell>
        <mxCell id="nzunu8r1k3bU8q7vp1oN-171" value="" style="edgeStyle=orthogonalEdgeStyle;rounded=0;orthogonalLoop=1;jettySize=auto;html=1;" edge="1" parent="1" source="nzunu8r1k3bU8q7vp1oN-123" target="nzunu8r1k3bU8q7vp1oN-129">
          <mxGeometry relative="1" as="geometry" />
        </mxCell>
        <mxCell id="nzunu8r1k3bU8q7vp1oN-173" value="true" style="edgeLabel;html=1;align=center;verticalAlign=middle;resizable=0;points=[];" vertex="1" connectable="0" parent="nzunu8r1k3bU8q7vp1oN-171">
          <mxGeometry x="0.093" y="-3" relative="1" as="geometry">
            <mxPoint as="offset" />
          </mxGeometry>
        </mxCell>
        <mxCell id="nzunu8r1k3bU8q7vp1oN-123" value="Success" style="rhombus;whiteSpace=wrap;html=1;fillColor=#D5E8D4;" vertex="1" parent="1">
          <mxGeometry x="625" y="371.73" width="80" height="67" as="geometry" />
        </mxCell>
        <mxCell id="nzunu8r1k3bU8q7vp1oN-127" value="Record update" style="shape=cylinder3;whiteSpace=wrap;html=1;boundedLbl=1;backgroundOutline=1;size=15;" vertex="1" parent="1">
          <mxGeometry x="648.5" y="554.13" width="50" height="65.87" as="geometry" />
        </mxCell>
        <mxCell id="nzunu8r1k3bU8q7vp1oN-172" value="" style="edgeStyle=orthogonalEdgeStyle;rounded=0;orthogonalLoop=1;jettySize=auto;html=1;" edge="1" parent="1" source="nzunu8r1k3bU8q7vp1oN-129" target="nzunu8r1k3bU8q7vp1oN-127">
          <mxGeometry relative="1" as="geometry" />
        </mxCell>
        <mxCell id="nzunu8r1k3bU8q7vp1oN-129" value="Remove Key" style="outlineConnect=0;dashed=0;verticalLabelPosition=bottom;verticalAlign=top;align=center;html=1;shape=mxgraph.aws3.redis;fillColor=#2E73B8;gradientColor=none;" vertex="1" parent="1">
          <mxGeometry x="648.5" y="475" width="33" height="30" as="geometry" />
        </mxCell>
        <mxCell id="nzunu8r1k3bU8q7vp1oN-142" value="" style="edgeStyle=orthogonalEdgeStyle;rounded=0;orthogonalLoop=1;jettySize=auto;html=1;" edge="1" parent="1" source="nzunu8r1k3bU8q7vp1oN-132" target="nzunu8r1k3bU8q7vp1oN-137">
          <mxGeometry relative="1" as="geometry" />
        </mxCell>
        <mxCell id="nzunu8r1k3bU8q7vp1oN-132" value="Add Cache data for fallback" style="whiteSpace=wrap;html=1;fillColor=light-dark(#D5E8D4,var(--ge-dark-color, #121212));" vertex="1" parent="1">
          <mxGeometry x="767" y="383.9" width="95" height="48.37" as="geometry" />
        </mxCell>
        <mxCell id="nzunu8r1k3bU8q7vp1oN-135" value="Return for fallback process" style="whiteSpace=wrap;html=1;fillColor=light-dark(#D5E8D4,var(--ge-dark-color, #121212));" vertex="1" parent="1">
          <mxGeometry x="990" y="385.82" width="90" height="42.76" as="geometry" />
        </mxCell>
        <mxCell id="nzunu8r1k3bU8q7vp1oN-158" value="" style="edgeStyle=orthogonalEdgeStyle;rounded=0;orthogonalLoop=1;jettySize=auto;html=1;" edge="1" parent="1" source="nzunu8r1k3bU8q7vp1oN-137" target="nzunu8r1k3bU8q7vp1oN-135">
          <mxGeometry relative="1" as="geometry" />
        </mxCell>
        <mxCell id="nzunu8r1k3bU8q7vp1oN-137" value="Update key&lt;br&gt;for fallback" style="outlineConnect=0;dashed=0;verticalLabelPosition=bottom;verticalAlign=top;align=center;html=1;shape=mxgraph.aws3.redis;fillColor=#2E73B8;gradientColor=none;" vertex="1" parent="1">
          <mxGeometry x="910" y="394.59" width="35" height="27" as="geometry" />
        </mxCell>
        <mxCell id="nzunu8r1k3bU8q7vp1oN-143" value="Provider selection" style="outlineConnect=0;dashed=0;verticalLabelPosition=bottom;verticalAlign=top;align=center;html=1;shape=mxgraph.aws3.redis;fillColor=#2E73B8;gradientColor=none;" vertex="1" parent="1">
          <mxGeometry x="802" y="212.5" width="25" height="20" as="geometry" />
        </mxCell>
        <mxCell id="nzunu8r1k3bU8q7vp1oN-146" style="edgeStyle=orthogonalEdgeStyle;rounded=0;orthogonalLoop=1;jettySize=auto;html=1;" edge="1" parent="1" source="nzunu8r1k3bU8q7vp1oN-144" target="nzunu8r1k3bU8q7vp1oN-116">
          <mxGeometry relative="1" as="geometry" />
        </mxCell>
        <mxCell id="nzunu8r1k3bU8q7vp1oN-157" value="" style="edgeStyle=orthogonalEdgeStyle;rounded=0;orthogonalLoop=1;jettySize=auto;html=1;fillColor=#D5E8D4;" edge="1" parent="1" source="nzunu8r1k3bU8q7vp1oN-144" target="nzunu8r1k3bU8q7vp1oN-123">
          <mxGeometry relative="1" as="geometry" />
        </mxCell>
        <mxCell id="nzunu8r1k3bU8q7vp1oN-144" value="Send Message" style="whiteSpace=wrap;html=1;fillColor=#D5E8D4;" vertex="1" parent="1">
          <mxGeometry x="595" y="262" width="120" height="33" as="geometry" />
        </mxCell>
        <mxCell id="nzunu8r1k3bU8q7vp1oN-181" value="" style="edgeStyle=elbowEdgeStyle;elbow=vertical;endArrow=classic;html=1;curved=0;rounded=0;endSize=8;startSize=8;" edge="1" parent="1" source="nzunu8r1k3bU8q7vp1oN-135" target="nzunu8r1k3bU8q7vp1oN-114">
          <mxGeometry width="50" height="50" relative="1" as="geometry">
            <mxPoint x="1245" y="344.9999999999999" as="sourcePoint" />
            <mxPoint x="1040" y="210.38" as="targetPoint" />
            <Array as="points">
              <mxPoint x="1170" y="220" />
            </Array>
          </mxGeometry>
        </mxCell>
        <mxCell id="nzunu8r1k3bU8q7vp1oN-189" value="" style="sketch=0;outlineConnect=0;fontColor=#232F3E;gradientColor=none;strokeColor=#232F3E;fillColor=#ffffff;dashed=0;verticalLabelPosition=bottom;verticalAlign=top;align=center;html=1;fontSize=12;fontStyle=0;aspect=fixed;shape=mxgraph.aws4.resourceIcon;resIcon=mxgraph.aws4.queue;" vertex="1" parent="1">
          <mxGeometry x="429" y="377.09" width="40" height="40" as="geometry" />
        </mxCell>
        <mxCell id="nzunu8r1k3bU8q7vp1oN-191" style="edgeStyle=orthogonalEdgeStyle;rounded=0;orthogonalLoop=1;jettySize=auto;html=1;" edge="1" parent="1" source="nzunu8r1k3bU8q7vp1oN-190" target="nzunu8r1k3bU8q7vp1oN-189">
          <mxGeometry relative="1" as="geometry" />
        </mxCell>
        <mxCell id="nzunu8r1k3bU8q7vp1oN-190" value="Remove item" style="whiteSpace=wrap;html=1;fillColor=light-dark(#FFE599,var(--ge-dark-color, #121212));" vertex="1" parent="1">
          <mxGeometry x="306" y="385.81999999999994" width="80" height="22.55" as="geometry" />
        </mxCell>
        <mxCell id="nzunu8r1k3bU8q7vp1oN-202" value="" style="endArrow=classic;html=1;rounded=0;exitX=1;exitY=0.5;exitDx=0;exitDy=0;entryX=0.25;entryY=1;entryDx=0;entryDy=0;" edge="1" parent="1" source="nzunu8r1k3bU8q7vp1oN-116" target="nzunu8r1k3bU8q7vp1oN-118">
          <mxGeometry width="50" height="50" relative="1" as="geometry">
            <mxPoint x="880" y="310.5" as="sourcePoint" />
            <mxPoint x="930" y="260.5" as="targetPoint" />
          </mxGeometry>
        </mxCell>
        <mxCell id="nzunu8r1k3bU8q7vp1oN-203" value="" style="endArrow=classic;html=1;rounded=0;exitX=1;exitY=0.75;exitDx=0;exitDy=0;entryX=0.25;entryY=0;entryDx=0;entryDy=0;" edge="1" parent="1" source="nzunu8r1k3bU8q7vp1oN-116" target="nzunu8r1k3bU8q7vp1oN-120">
          <mxGeometry width="50" height="50" relative="1" as="geometry">
            <mxPoint x="879" y="289" as="sourcePoint" />
            <mxPoint x="935" y="265" as="targetPoint" />
          </mxGeometry>
        </mxCell>
      </root>
    </mxGraphModel>
  </diagram>
</mxfile>
